<mxfile host="app.diagrams.net" agent="Mozilla/5.0 (Windows NT 10.0; Win64; x64) AppleWebKit/537.36 (KHTML, like Gecko) Chrome/129.0.0.0 Safari/537.36 Edg/129.0.0.0" version="24.7.17" pages="2">
  <diagram id="C5RBs43oDa-KdzZeNtuy" name="Card_Grafica">
    <mxGraphModel dx="1426" dy="781" grid="1" gridSize="10" guides="1" tooltips="1" connect="1" arrows="1" fold="1" page="1" pageScale="1" pageWidth="827" pageHeight="1169" math="0" shadow="0">
      <root>
        <mxCell id="WIyWlLk6GJQsqaUBKTNV-0" />
        <mxCell id="WIyWlLk6GJQsqaUBKTNV-1" parent="WIyWlLk6GJQsqaUBKTNV-0" />
        <mxCell id="fTDlbqhUCNYveoykN_zY-8" value="" style="edgeStyle=orthogonalEdgeStyle;rounded=0;orthogonalLoop=1;jettySize=auto;html=1;" parent="WIyWlLk6GJQsqaUBKTNV-1" source="WIyWlLk6GJQsqaUBKTNV-3" target="fTDlbqhUCNYveoykN_zY-5" edge="1">
          <mxGeometry relative="1" as="geometry" />
        </mxCell>
        <mxCell id="trcUUFW1OaZWTTXaqjhK-3" value="" style="edgeStyle=orthogonalEdgeStyle;rounded=0;orthogonalLoop=1;jettySize=auto;html=1;" parent="WIyWlLk6GJQsqaUBKTNV-1" source="WIyWlLk6GJQsqaUBKTNV-3" target="trcUUFW1OaZWTTXaqjhK-1" edge="1">
          <mxGeometry relative="1" as="geometry" />
        </mxCell>
        <mxCell id="WIyWlLk6GJQsqaUBKTNV-3" value="Cliente" style="rounded=1;whiteSpace=wrap;html=1;fontSize=12;glass=0;strokeWidth=1;shadow=0;" parent="WIyWlLk6GJQsqaUBKTNV-1" vertex="1">
          <mxGeometry x="70" y="80" width="120" height="40" as="geometry" />
        </mxCell>
        <mxCell id="WIyWlLk6GJQsqaUBKTNV-6" value="Faz" style="rhombus;whiteSpace=wrap;html=1;shadow=0;fontFamily=Helvetica;fontSize=12;align=center;strokeWidth=1;spacing=6;spacingTop=-4;" parent="WIyWlLk6GJQsqaUBKTNV-1" vertex="1">
          <mxGeometry x="215" y="210" width="85" height="50" as="geometry" />
        </mxCell>
        <mxCell id="WIyWlLk6GJQsqaUBKTNV-7" value="EndereÃ§o" style="rounded=1;whiteSpace=wrap;html=1;fontSize=12;glass=0;strokeWidth=1;shadow=0;" parent="WIyWlLk6GJQsqaUBKTNV-1" vertex="1">
          <mxGeometry x="330" y="80" width="120" height="40" as="geometry" />
        </mxCell>
        <mxCell id="trcUUFW1OaZWTTXaqjhK-9" value="" style="edgeStyle=orthogonalEdgeStyle;rounded=0;orthogonalLoop=1;jettySize=auto;html=1;entryX=0.5;entryY=0;entryDx=0;entryDy=0;" parent="WIyWlLk6GJQsqaUBKTNV-1" source="WIyWlLk6GJQsqaUBKTNV-11" target="7USPGDtXoc74cc5BYXGH-4" edge="1">
          <mxGeometry relative="1" as="geometry" />
        </mxCell>
        <mxCell id="WIyWlLk6GJQsqaUBKTNV-11" value="Pagamento" style="rounded=1;whiteSpace=wrap;html=1;fontSize=12;glass=0;strokeWidth=1;shadow=0;" parent="WIyWlLk6GJQsqaUBKTNV-1" vertex="1">
          <mxGeometry x="330" y="150" width="120" height="30" as="geometry" />
        </mxCell>
        <mxCell id="nzJIaV9Nok3M1dJ2iumO-7" style="edgeStyle=orthogonalEdgeStyle;rounded=0;orthogonalLoop=1;jettySize=auto;html=1;entryX=0;entryY=0.5;entryDx=0;entryDy=0;" parent="WIyWlLk6GJQsqaUBKTNV-1" source="WIyWlLk6GJQsqaUBKTNV-12" target="nzJIaV9Nok3M1dJ2iumO-1" edge="1">
          <mxGeometry relative="1" as="geometry">
            <Array as="points">
              <mxPoint x="210" y="340" />
              <mxPoint x="210" y="415" />
            </Array>
          </mxGeometry>
        </mxCell>
        <mxCell id="WIyWlLk6GJQsqaUBKTNV-12" value="Produto" style="rounded=1;whiteSpace=wrap;html=1;fontSize=12;glass=0;strokeWidth=1;shadow=0;" parent="WIyWlLk6GJQsqaUBKTNV-1" vertex="1">
          <mxGeometry x="70" y="320" width="120" height="40" as="geometry" />
        </mxCell>
        <mxCell id="fTDlbqhUCNYveoykN_zY-41" value="" style="edgeStyle=orthogonalEdgeStyle;rounded=0;orthogonalLoop=1;jettySize=auto;html=1;" parent="WIyWlLk6GJQsqaUBKTNV-1" source="fTDlbqhUCNYveoykN_zY-0" target="fTDlbqhUCNYveoykN_zY-31" edge="1">
          <mxGeometry relative="1" as="geometry" />
        </mxCell>
        <mxCell id="trcUUFW1OaZWTTXaqjhK-35" value="" style="edgeStyle=orthogonalEdgeStyle;rounded=0;orthogonalLoop=1;jettySize=auto;html=1;" parent="WIyWlLk6GJQsqaUBKTNV-1" source="fTDlbqhUCNYveoykN_zY-0" edge="1">
          <mxGeometry relative="1" as="geometry">
            <mxPoint x="480" y="340" as="targetPoint" />
          </mxGeometry>
        </mxCell>
        <mxCell id="nzJIaV9Nok3M1dJ2iumO-5" style="edgeStyle=orthogonalEdgeStyle;rounded=0;orthogonalLoop=1;jettySize=auto;html=1;entryX=1;entryY=0.5;entryDx=0;entryDy=0;" parent="WIyWlLk6GJQsqaUBKTNV-1" source="fTDlbqhUCNYveoykN_zY-0" target="nzJIaV9Nok3M1dJ2iumO-1" edge="1">
          <mxGeometry relative="1" as="geometry">
            <Array as="points">
              <mxPoint x="300" y="340" />
              <mxPoint x="300" y="415" />
            </Array>
          </mxGeometry>
        </mxCell>
        <mxCell id="fTDlbqhUCNYveoykN_zY-0" value="Pedido" style="rounded=1;whiteSpace=wrap;html=1;" parent="WIyWlLk6GJQsqaUBKTNV-1" vertex="1">
          <mxGeometry x="330" y="320" width="120" height="40" as="geometry" />
        </mxCell>
        <mxCell id="fTDlbqhUCNYveoykN_zY-1" value="Canal" style="rounded=1;whiteSpace=wrap;html=1;" parent="WIyWlLk6GJQsqaUBKTNV-1" vertex="1">
          <mxGeometry x="580" y="320" width="120" height="40" as="geometry" />
        </mxCell>
        <mxCell id="fTDlbqhUCNYveoykN_zY-19" style="edgeStyle=orthogonalEdgeStyle;rounded=0;orthogonalLoop=1;jettySize=auto;html=1;" parent="WIyWlLk6GJQsqaUBKTNV-1" source="fTDlbqhUCNYveoykN_zY-3" target="fTDlbqhUCNYveoykN_zY-14" edge="1">
          <mxGeometry relative="1" as="geometry" />
        </mxCell>
        <mxCell id="fTDlbqhUCNYveoykN_zY-3" value="Funcionario" style="rounded=1;whiteSpace=wrap;html=1;" parent="WIyWlLk6GJQsqaUBKTNV-1" vertex="1">
          <mxGeometry x="580" y="220" width="120" height="40" as="geometry" />
        </mxCell>
        <mxCell id="fTDlbqhUCNYveoykN_zY-10" value="" style="edgeStyle=orthogonalEdgeStyle;rounded=0;orthogonalLoop=1;jettySize=auto;html=1;" parent="WIyWlLk6GJQsqaUBKTNV-1" source="fTDlbqhUCNYveoykN_zY-5" target="WIyWlLk6GJQsqaUBKTNV-7" edge="1">
          <mxGeometry relative="1" as="geometry" />
        </mxCell>
        <mxCell id="fTDlbqhUCNYveoykN_zY-5" value="Possui" style="rhombus;whiteSpace=wrap;html=1;" parent="WIyWlLk6GJQsqaUBKTNV-1" vertex="1">
          <mxGeometry x="220" y="75" width="80" height="50" as="geometry" />
        </mxCell>
        <mxCell id="fTDlbqhUCNYveoykN_zY-14" value="Registra" style="rhombus;whiteSpace=wrap;html=1;" parent="WIyWlLk6GJQsqaUBKTNV-1" vertex="1">
          <mxGeometry x="475" y="215" width="80" height="50" as="geometry" />
        </mxCell>
        <mxCell id="trcUUFW1OaZWTTXaqjhK-41" style="edgeStyle=orthogonalEdgeStyle;rounded=0;orthogonalLoop=1;jettySize=auto;html=1;exitX=1;exitY=0.5;exitDx=0;exitDy=0;" parent="WIyWlLk6GJQsqaUBKTNV-1" source="fTDlbqhUCNYveoykN_zY-24" edge="1">
          <mxGeometry relative="1" as="geometry">
            <mxPoint x="580" y="340" as="targetPoint" />
          </mxGeometry>
        </mxCell>
        <mxCell id="fTDlbqhUCNYveoykN_zY-24" value="Pertence" style="rhombus;whiteSpace=wrap;html=1;" parent="WIyWlLk6GJQsqaUBKTNV-1" vertex="1">
          <mxGeometry x="480" y="316.25" width="70" height="50" as="geometry" />
        </mxCell>
        <mxCell id="fTDlbqhUCNYveoykN_zY-42" value="" style="edgeStyle=orthogonalEdgeStyle;rounded=0;orthogonalLoop=1;jettySize=auto;html=1;" parent="WIyWlLk6GJQsqaUBKTNV-1" source="fTDlbqhUCNYveoykN_zY-31" target="WIyWlLk6GJQsqaUBKTNV-12" edge="1">
          <mxGeometry relative="1" as="geometry" />
        </mxCell>
        <mxCell id="fTDlbqhUCNYveoykN_zY-31" value="Gera" style="rhombus;whiteSpace=wrap;html=1;" parent="WIyWlLk6GJQsqaUBKTNV-1" vertex="1">
          <mxGeometry x="215" y="315" width="80" height="50" as="geometry" />
        </mxCell>
        <mxCell id="fTDlbqhUCNYveoykN_zY-38" style="edgeStyle=orthogonalEdgeStyle;rounded=0;orthogonalLoop=1;jettySize=auto;html=1;entryX=0.103;entryY=0.429;entryDx=0;entryDy=0;entryPerimeter=0;" parent="WIyWlLk6GJQsqaUBKTNV-1" source="WIyWlLk6GJQsqaUBKTNV-3" target="WIyWlLk6GJQsqaUBKTNV-6" edge="1">
          <mxGeometry relative="1" as="geometry">
            <Array as="points">
              <mxPoint x="210" y="100" />
              <mxPoint x="210" y="232" />
            </Array>
          </mxGeometry>
        </mxCell>
        <mxCell id="fTDlbqhUCNYveoykN_zY-61" value="&lt;font style=&quot;font-size: 9px;&quot;&gt;NomeCliente&lt;/font&gt;" style="text;html=1;align=center;verticalAlign=middle;resizable=0;points=[];autosize=1;strokeColor=none;fillColor=none;" parent="WIyWlLk6GJQsqaUBKTNV-1" vertex="1">
          <mxGeometry x="27.5" y="56.25" width="80" height="30" as="geometry" />
        </mxCell>
        <mxCell id="fTDlbqhUCNYveoykN_zY-62" value="&lt;font style=&quot;font-size: 9px;&quot;&gt;IdCliente&lt;/font&gt;" style="text;html=1;align=center;verticalAlign=middle;resizable=0;points=[];autosize=1;strokeColor=none;fillColor=none;" parent="WIyWlLk6GJQsqaUBKTNV-1" vertex="1">
          <mxGeometry x="150" y="56.25" width="60" height="30" as="geometry" />
        </mxCell>
        <mxCell id="fTDlbqhUCNYveoykN_zY-63" value="" style="ellipse;whiteSpace=wrap;html=1;aspect=fixed;fillColor=#000000;" parent="WIyWlLk6GJQsqaUBKTNV-1" vertex="1">
          <mxGeometry x="60" y="130" as="geometry" />
        </mxCell>
        <mxCell id="fTDlbqhUCNYveoykN_zY-64" value="&lt;font style=&quot;font-size: 9px;&quot;&gt;IdEndereco&lt;/font&gt;" style="text;html=1;align=center;verticalAlign=middle;resizable=0;points=[];autosize=1;strokeColor=none;fillColor=none;" parent="WIyWlLk6GJQsqaUBKTNV-1" vertex="1">
          <mxGeometry x="305" y="58" width="70" height="30" as="geometry" />
        </mxCell>
        <mxCell id="fTDlbqhUCNYveoykN_zY-65" value="&lt;font style=&quot;font-size: 9px;&quot;&gt;Logradouro&lt;/font&gt;" style="text;html=1;align=center;verticalAlign=middle;resizable=0;points=[];autosize=1;strokeColor=none;fillColor=none;" parent="WIyWlLk6GJQsqaUBKTNV-1" vertex="1">
          <mxGeometry x="356.25" y="58" width="70" height="30" as="geometry" />
        </mxCell>
        <mxCell id="fTDlbqhUCNYveoykN_zY-66" value="&lt;font style=&quot;font-size: 9px;&quot;&gt;IdCliente&lt;/font&gt;" style="text;html=1;align=center;verticalAlign=middle;resizable=0;points=[];autosize=1;strokeColor=none;fillColor=none;" parent="WIyWlLk6GJQsqaUBKTNV-1" vertex="1">
          <mxGeometry x="410" y="58" width="60" height="30" as="geometry" />
        </mxCell>
        <mxCell id="fTDlbqhUCNYveoykN_zY-67" value="" style="ellipse;whiteSpace=wrap;html=1;aspect=fixed;fillColor=#000000;" parent="WIyWlLk6GJQsqaUBKTNV-1" vertex="1">
          <mxGeometry x="307" y="70" width="8" height="8" as="geometry" />
        </mxCell>
        <mxCell id="fTDlbqhUCNYveoykN_zY-68" value="&lt;font style=&quot;font-size: 9px;&quot;&gt;Numero&lt;/font&gt;" style="text;html=1;align=center;verticalAlign=middle;resizable=0;points=[];autosize=1;strokeColor=none;fillColor=none;" parent="WIyWlLk6GJQsqaUBKTNV-1" vertex="1">
          <mxGeometry x="310" y="110" width="60" height="30" as="geometry" />
        </mxCell>
        <mxCell id="fTDlbqhUCNYveoykN_zY-69" value="&lt;font style=&quot;font-size: 9px;&quot;&gt;Bairro&lt;/font&gt;" style="text;html=1;align=center;verticalAlign=middle;resizable=0;points=[];autosize=1;strokeColor=none;fillColor=none;" parent="WIyWlLk6GJQsqaUBKTNV-1" vertex="1">
          <mxGeometry x="365" y="110" width="50" height="30" as="geometry" />
        </mxCell>
        <mxCell id="fTDlbqhUCNYveoykN_zY-70" value="&lt;font style=&quot;font-size: 9px;&quot;&gt;Cidade&lt;/font&gt;" style="text;html=1;align=center;verticalAlign=middle;resizable=0;points=[];autosize=1;strokeColor=none;fillColor=none;" parent="WIyWlLk6GJQsqaUBKTNV-1" vertex="1">
          <mxGeometry x="415" y="110" width="50" height="30" as="geometry" />
        </mxCell>
        <mxCell id="fTDlbqhUCNYveoykN_zY-71" value="&lt;font style=&quot;font-size: 9px;&quot;&gt;IdPgto&lt;/font&gt;" style="text;html=1;align=center;verticalAlign=middle;resizable=0;points=[];autosize=1;strokeColor=none;fillColor=none;" parent="WIyWlLk6GJQsqaUBKTNV-1" vertex="1">
          <mxGeometry x="330" y="178" width="50" height="30" as="geometry" />
        </mxCell>
        <mxCell id="fTDlbqhUCNYveoykN_zY-72" value="&lt;font style=&quot;font-size: 9px;&quot;&gt;DescrPagamento&lt;/font&gt;" style="text;html=1;align=center;verticalAlign=middle;resizable=0;points=[];autosize=1;strokeColor=none;fillColor=none;" parent="WIyWlLk6GJQsqaUBKTNV-1" vertex="1">
          <mxGeometry x="385" y="178" width="90" height="30" as="geometry" />
        </mxCell>
        <mxCell id="fTDlbqhUCNYveoykN_zY-74" value="" style="ellipse;whiteSpace=wrap;html=1;aspect=fixed;fillColor=#000000;" parent="WIyWlLk6GJQsqaUBKTNV-1" vertex="1">
          <mxGeometry x="330" y="190" width="10" height="10" as="geometry" />
        </mxCell>
        <mxCell id="fTDlbqhUCNYveoykN_zY-75" value="&lt;font style=&quot;font-size: 9px;&quot;&gt;IdProduto&lt;/font&gt;" style="text;html=1;align=center;verticalAlign=middle;resizable=0;points=[];autosize=1;strokeColor=none;fillColor=none;" parent="WIyWlLk6GJQsqaUBKTNV-1" vertex="1">
          <mxGeometry x="40" y="293.75" width="60" height="30" as="geometry" />
        </mxCell>
        <mxCell id="fTDlbqhUCNYveoykN_zY-76" value="&lt;font style=&quot;font-size: 9px;&quot;&gt;NomeProduto&lt;/font&gt;" style="text;html=1;align=center;verticalAlign=middle;resizable=0;points=[];autosize=1;strokeColor=none;fillColor=none;" parent="WIyWlLk6GJQsqaUBKTNV-1" vertex="1">
          <mxGeometry x="90" y="293.75" width="80" height="30" as="geometry" />
        </mxCell>
        <mxCell id="fTDlbqhUCNYveoykN_zY-77" value="&lt;font style=&quot;font-size: 9px;&quot;&gt;Valor&lt;/font&gt;" style="text;html=1;align=center;verticalAlign=middle;resizable=0;points=[];autosize=1;strokeColor=none;fillColor=none;" parent="WIyWlLk6GJQsqaUBKTNV-1" vertex="1">
          <mxGeometry x="170" y="293.75" width="40" height="30" as="geometry" />
        </mxCell>
        <mxCell id="fTDlbqhUCNYveoykN_zY-78" value="&lt;font style=&quot;font-size: 9px;&quot;&gt;DescrProduto&lt;/font&gt;" style="text;html=1;align=center;verticalAlign=middle;resizable=0;points=[];autosize=1;strokeColor=none;fillColor=none;" parent="WIyWlLk6GJQsqaUBKTNV-1" vertex="1">
          <mxGeometry x="80" y="355" width="80" height="30" as="geometry" />
        </mxCell>
        <mxCell id="fTDlbqhUCNYveoykN_zY-79" value="" style="ellipse;whiteSpace=wrap;html=1;aspect=fixed;fillColor=#000000;" parent="WIyWlLk6GJQsqaUBKTNV-1" vertex="1">
          <mxGeometry x="40" y="302.5" width="10" height="10" as="geometry" />
        </mxCell>
        <mxCell id="fTDlbqhUCNYveoykN_zY-80" value="&lt;font style=&quot;font-size: 9px;&quot;&gt;IdFunc&lt;/font&gt;" style="text;html=1;align=center;verticalAlign=middle;resizable=0;points=[];autosize=1;strokeColor=none;fillColor=none;" parent="WIyWlLk6GJQsqaUBKTNV-1" vertex="1">
          <mxGeometry x="568" y="198" width="50" height="30" as="geometry" />
        </mxCell>
        <mxCell id="fTDlbqhUCNYveoykN_zY-81" value="&lt;font style=&quot;font-size: 9px;&quot;&gt;CargoFuncionario&lt;/font&gt;" style="text;html=1;align=center;verticalAlign=middle;resizable=0;points=[];autosize=1;strokeColor=none;fillColor=none;" parent="WIyWlLk6GJQsqaUBKTNV-1" vertex="1">
          <mxGeometry x="640" y="198" width="100" height="30" as="geometry" />
        </mxCell>
        <mxCell id="fTDlbqhUCNYveoykN_zY-82" value="&lt;font style=&quot;font-size: 9px;&quot;&gt;NomeFuncionario&lt;/font&gt;" style="text;html=1;align=center;verticalAlign=middle;resizable=0;points=[];autosize=1;strokeColor=none;fillColor=none;" parent="WIyWlLk6GJQsqaUBKTNV-1" vertex="1">
          <mxGeometry x="595" y="255" width="90" height="30" as="geometry" />
        </mxCell>
        <mxCell id="fTDlbqhUCNYveoykN_zY-83" value="" style="ellipse;whiteSpace=wrap;html=1;aspect=fixed;fillColor=#000000;" parent="WIyWlLk6GJQsqaUBKTNV-1" vertex="1">
          <mxGeometry x="564" y="207" width="12" height="12" as="geometry" />
        </mxCell>
        <mxCell id="fTDlbqhUCNYveoykN_zY-84" value="&lt;font style=&quot;font-size: 9px;&quot;&gt;IdCanal&lt;/font&gt;" style="text;html=1;align=center;verticalAlign=middle;resizable=0;points=[];autosize=1;strokeColor=none;fillColor=none;" parent="WIyWlLk6GJQsqaUBKTNV-1" vertex="1">
          <mxGeometry x="575" y="295" width="50" height="30" as="geometry" />
        </mxCell>
        <mxCell id="fTDlbqhUCNYveoykN_zY-85" value="&lt;font style=&quot;font-size: 9px;&quot;&gt;DescrCanal&lt;/font&gt;" style="text;html=1;align=center;verticalAlign=middle;resizable=0;points=[];autosize=1;strokeColor=none;fillColor=none;" parent="WIyWlLk6GJQsqaUBKTNV-1" vertex="1">
          <mxGeometry x="660" y="293.75" width="70" height="30" as="geometry" />
        </mxCell>
        <mxCell id="fTDlbqhUCNYveoykN_zY-86" value="" style="ellipse;whiteSpace=wrap;html=1;aspect=fixed;fillColor=#000000;" parent="WIyWlLk6GJQsqaUBKTNV-1" vertex="1">
          <mxGeometry x="568" y="303" width="12" height="12" as="geometry" />
        </mxCell>
        <mxCell id="fTDlbqhUCNYveoykN_zY-87" value="&lt;font style=&quot;font-size: 9px;&quot;&gt;IdCliente&lt;/font&gt;" style="text;html=1;align=center;verticalAlign=middle;resizable=0;points=[];autosize=1;strokeColor=none;fillColor=none;" parent="WIyWlLk6GJQsqaUBKTNV-1" vertex="1">
          <mxGeometry x="310" y="355" width="60" height="30" as="geometry" />
        </mxCell>
        <mxCell id="fTDlbqhUCNYveoykN_zY-88" value="&lt;font style=&quot;font-size: 9px;&quot;&gt;IdProduto&lt;/font&gt;" style="text;html=1;align=center;verticalAlign=middle;resizable=0;points=[];autosize=1;strokeColor=none;fillColor=none;" parent="WIyWlLk6GJQsqaUBKTNV-1" vertex="1">
          <mxGeometry x="360" y="355" width="60" height="30" as="geometry" />
        </mxCell>
        <mxCell id="fTDlbqhUCNYveoykN_zY-89" value="&lt;font style=&quot;font-size: 9px;&quot;&gt;IdPgto&lt;/font&gt;" style="text;html=1;align=center;verticalAlign=middle;resizable=0;points=[];autosize=1;strokeColor=none;fillColor=none;" parent="WIyWlLk6GJQsqaUBKTNV-1" vertex="1">
          <mxGeometry x="410" y="355" width="50" height="30" as="geometry" />
        </mxCell>
        <mxCell id="fTDlbqhUCNYveoykN_zY-91" value="&lt;font style=&quot;font-size: 9px;&quot;&gt;IdCanal&lt;/font&gt;" style="text;html=1;align=center;verticalAlign=middle;resizable=0;points=[];autosize=1;strokeColor=none;fillColor=none;" parent="WIyWlLk6GJQsqaUBKTNV-1" vertex="1">
          <mxGeometry x="315" y="295" width="50" height="30" as="geometry" />
        </mxCell>
        <mxCell id="fTDlbqhUCNYveoykN_zY-92" value="&lt;font style=&quot;font-size: 9px;&quot;&gt;IdFunc&lt;/font&gt;" style="text;html=1;align=center;verticalAlign=middle;resizable=0;points=[];autosize=1;strokeColor=none;fillColor=none;" parent="WIyWlLk6GJQsqaUBKTNV-1" vertex="1">
          <mxGeometry x="430" y="295" width="50" height="30" as="geometry" />
        </mxCell>
        <mxCell id="7USPGDtXoc74cc5BYXGH-1" value="&lt;font style=&quot;font-size: 8px;&quot;&gt;(1,N)&lt;/font&gt;" style="text;html=1;align=center;verticalAlign=middle;resizable=0;points=[];autosize=1;strokeColor=none;fillColor=none;" parent="WIyWlLk6GJQsqaUBKTNV-1" vertex="1">
          <mxGeometry x="290" y="75" width="40" height="30" as="geometry" />
        </mxCell>
        <mxCell id="7USPGDtXoc74cc5BYXGH-2" value="&lt;font style=&quot;font-size: 8px;&quot;&gt;(1,1)&lt;/font&gt;" style="text;html=1;align=center;verticalAlign=middle;resizable=0;points=[];autosize=1;strokeColor=none;fillColor=none;" parent="WIyWlLk6GJQsqaUBKTNV-1" vertex="1">
          <mxGeometry x="180" y="78" width="40" height="30" as="geometry" />
        </mxCell>
        <mxCell id="trcUUFW1OaZWTTXaqjhK-13" value="" style="edgeStyle=orthogonalEdgeStyle;rounded=0;orthogonalLoop=1;jettySize=auto;html=1;entryX=0.5;entryY=0;entryDx=0;entryDy=0;" parent="WIyWlLk6GJQsqaUBKTNV-1" source="7USPGDtXoc74cc5BYXGH-4" target="fTDlbqhUCNYveoykN_zY-0" edge="1">
          <mxGeometry relative="1" as="geometry" />
        </mxCell>
        <mxCell id="trcUUFW1OaZWTTXaqjhK-57" style="edgeStyle=orthogonalEdgeStyle;rounded=0;orthogonalLoop=1;jettySize=auto;html=1;exitX=1;exitY=0.5;exitDx=0;exitDy=0;" parent="WIyWlLk6GJQsqaUBKTNV-1" source="7USPGDtXoc74cc5BYXGH-4" edge="1">
          <mxGeometry relative="1" as="geometry">
            <mxPoint x="415" y="241" as="targetPoint" />
          </mxGeometry>
        </mxCell>
        <mxCell id="7USPGDtXoc74cc5BYXGH-4" value="&lt;font style=&quot;font-size: 9px;&quot;&gt;Pertence&lt;/font&gt;" style="rhombus;whiteSpace=wrap;html=1;" parent="WIyWlLk6GJQsqaUBKTNV-1" vertex="1">
          <mxGeometry x="365" y="220" width="50" height="42.5" as="geometry" />
        </mxCell>
        <mxCell id="7USPGDtXoc74cc5BYXGH-5" style="edgeStyle=orthogonalEdgeStyle;rounded=0;orthogonalLoop=1;jettySize=auto;html=1;entryX=0.7;entryY=0.733;entryDx=0;entryDy=0;entryPerimeter=0;" parent="WIyWlLk6GJQsqaUBKTNV-1" source="WIyWlLk6GJQsqaUBKTNV-6" target="fTDlbqhUCNYveoykN_zY-91" edge="1">
          <mxGeometry relative="1" as="geometry" />
        </mxCell>
        <mxCell id="7USPGDtXoc74cc5BYXGH-8" value="&lt;font style=&quot;font-size: 8px;&quot;&gt;(1,1)&lt;/font&gt;" style="text;html=1;align=center;verticalAlign=middle;resizable=0;points=[];autosize=1;strokeColor=none;fillColor=none;" parent="WIyWlLk6GJQsqaUBKTNV-1" vertex="1">
          <mxGeometry x="360" y="168" width="40" height="30" as="geometry" />
        </mxCell>
        <mxCell id="7USPGDtXoc74cc5BYXGH-10" value="&lt;font style=&quot;font-size: 8px;&quot;&gt;(1,N)&lt;/font&gt;" style="text;html=1;align=center;verticalAlign=middle;resizable=0;points=[];autosize=1;strokeColor=none;fillColor=none;" parent="WIyWlLk6GJQsqaUBKTNV-1" vertex="1">
          <mxGeometry x="320" y="270" width="40" height="30" as="geometry" />
        </mxCell>
        <mxCell id="7USPGDtXoc74cc5BYXGH-11" value="&lt;span style=&quot;font-size: 8px;&quot;&gt;(1,1)&lt;/span&gt;" style="text;html=1;align=center;verticalAlign=middle;resizable=0;points=[];autosize=1;strokeColor=none;fillColor=none;" parent="WIyWlLk6GJQsqaUBKTNV-1" vertex="1">
          <mxGeometry x="280" y="230" width="40" height="30" as="geometry" />
        </mxCell>
        <mxCell id="7USPGDtXoc74cc5BYXGH-16" value="&lt;font style=&quot;font-size: 8px;&quot;&gt;(1,N)&lt;/font&gt;" style="text;html=1;align=center;verticalAlign=middle;resizable=0;points=[];autosize=1;strokeColor=none;fillColor=none;" parent="WIyWlLk6GJQsqaUBKTNV-1" vertex="1">
          <mxGeometry x="181" y="332.5" width="40" height="30" as="geometry" />
        </mxCell>
        <mxCell id="7USPGDtXoc74cc5BYXGH-17" value="&lt;font style=&quot;font-size: 8px;&quot;&gt;(0,1)&lt;/font&gt;" style="text;html=1;align=center;verticalAlign=middle;resizable=0;points=[];autosize=1;strokeColor=none;fillColor=none;" parent="WIyWlLk6GJQsqaUBKTNV-1" vertex="1">
          <mxGeometry x="300" y="333" width="40" height="30" as="geometry" />
        </mxCell>
        <mxCell id="7USPGDtXoc74cc5BYXGH-18" value="&lt;font style=&quot;font-size: 8px;&quot;&gt;(1,1)&lt;/font&gt;" style="text;html=1;align=center;verticalAlign=middle;resizable=0;points=[];autosize=1;strokeColor=none;fillColor=none;" parent="WIyWlLk6GJQsqaUBKTNV-1" vertex="1">
          <mxGeometry x="549" y="340" width="40" height="30" as="geometry" />
        </mxCell>
        <mxCell id="7USPGDtXoc74cc5BYXGH-19" value="&lt;font style=&quot;font-size: 8px;&quot;&gt;(1,1)&lt;/font&gt;" style="text;html=1;align=center;verticalAlign=middle;resizable=0;points=[];autosize=1;strokeColor=none;fillColor=none;" parent="WIyWlLk6GJQsqaUBKTNV-1" vertex="1">
          <mxGeometry x="445" y="338" width="40" height="30" as="geometry" />
        </mxCell>
        <mxCell id="7USPGDtXoc74cc5BYXGH-20" value="&lt;font style=&quot;font-size: 8px;&quot;&gt;(0,1)&lt;/font&gt;" style="text;html=1;align=center;verticalAlign=middle;resizable=0;points=[];autosize=1;strokeColor=none;fillColor=none;rotation=90;" parent="WIyWlLk6GJQsqaUBKTNV-1" vertex="1">
          <mxGeometry x="400" y="268" width="40" height="30" as="geometry" />
        </mxCell>
        <mxCell id="7USPGDtXoc74cc5BYXGH-21" value="&lt;font style=&quot;font-size: 8px;&quot;&gt;(1,1)&lt;/font&gt;" style="text;html=1;align=center;verticalAlign=middle;resizable=0;points=[];autosize=1;strokeColor=none;fillColor=none;" parent="WIyWlLk6GJQsqaUBKTNV-1" vertex="1">
          <mxGeometry x="550" y="218" width="40" height="30" as="geometry" />
        </mxCell>
        <mxCell id="7USPGDtXoc74cc5BYXGH-23" value="" style="ellipse;whiteSpace=wrap;html=1;aspect=fixed;fillColor=#000000;" parent="WIyWlLk6GJQsqaUBKTNV-1" vertex="1">
          <mxGeometry x="200" y="66.25" width="10" height="10" as="geometry" />
        </mxCell>
        <mxCell id="trcUUFW1OaZWTTXaqjhK-0" value="&lt;font style=&quot;font-size: 8px;&quot;&gt;IdTelefone&lt;/font&gt;" style="text;html=1;align=center;verticalAlign=middle;resizable=0;points=[];autosize=1;strokeColor=none;fillColor=none;" parent="WIyWlLk6GJQsqaUBKTNV-1" vertex="1">
          <mxGeometry x="60" y="115" width="60" height="30" as="geometry" />
        </mxCell>
        <mxCell id="trcUUFW1OaZWTTXaqjhK-1" value="Tem" style="rhombus;whiteSpace=wrap;html=1;" parent="WIyWlLk6GJQsqaUBKTNV-1" vertex="1">
          <mxGeometry x="90" y="145" width="80" height="55" as="geometry" />
        </mxCell>
        <mxCell id="trcUUFW1OaZWTTXaqjhK-4" value="Telefone" style="rounded=1;whiteSpace=wrap;html=1;" parent="WIyWlLk6GJQsqaUBKTNV-1" vertex="1">
          <mxGeometry x="70" y="217.5" width="120" height="42" as="geometry" />
        </mxCell>
        <mxCell id="trcUUFW1OaZWTTXaqjhK-14" value="&lt;font style=&quot;font-size: 8px;&quot;&gt;(1,1)&lt;/font&gt;" style="text;html=1;align=center;verticalAlign=middle;resizable=0;points=[];autosize=1;strokeColor=none;fillColor=none;" parent="WIyWlLk6GJQsqaUBKTNV-1" vertex="1">
          <mxGeometry x="360" y="298" width="40" height="30" as="geometry" />
        </mxCell>
        <mxCell id="trcUUFW1OaZWTTXaqjhK-15" value="&lt;font style=&quot;font-size: 8px;&quot;&gt;IdTelefone&lt;/font&gt;" style="text;html=1;align=center;verticalAlign=middle;resizable=0;points=[];autosize=1;strokeColor=none;fillColor=none;" parent="WIyWlLk6GJQsqaUBKTNV-1" vertex="1">
          <mxGeometry x="440" y="80" width="60" height="30" as="geometry" />
        </mxCell>
        <mxCell id="trcUUFW1OaZWTTXaqjhK-17" value="&lt;font style=&quot;font-size: 8px;&quot;&gt;IdTelefone&lt;/font&gt;" style="text;html=1;align=center;verticalAlign=middle;resizable=0;points=[];autosize=1;strokeColor=none;fillColor=none;" parent="WIyWlLk6GJQsqaUBKTNV-1" vertex="1">
          <mxGeometry x="60" y="255" width="60" height="30" as="geometry" />
        </mxCell>
        <mxCell id="trcUUFW1OaZWTTXaqjhK-18" value="&lt;font style=&quot;font-size: 8px;&quot;&gt;Numero&lt;/font&gt;" style="text;html=1;align=center;verticalAlign=middle;resizable=0;points=[];autosize=1;strokeColor=none;fillColor=none;" parent="WIyWlLk6GJQsqaUBKTNV-1" vertex="1">
          <mxGeometry x="140" y="255" width="50" height="30" as="geometry" />
        </mxCell>
        <mxCell id="trcUUFW1OaZWTTXaqjhK-19" value="" style="ellipse;whiteSpace=wrap;html=1;aspect=fixed;fillColor=#3333FF;" parent="WIyWlLk6GJQsqaUBKTNV-1" vertex="1">
          <mxGeometry x="490" y="92.5" width="7.5" height="7.5" as="geometry" />
        </mxCell>
        <mxCell id="trcUUFW1OaZWTTXaqjhK-20" value="" style="ellipse;whiteSpace=wrap;html=1;aspect=fixed;fillColor=#000000;" parent="WIyWlLk6GJQsqaUBKTNV-1" vertex="1">
          <mxGeometry x="60" y="265" width="10" height="10" as="geometry" />
        </mxCell>
        <mxCell id="trcUUFW1OaZWTTXaqjhK-21" value="" style="ellipse;whiteSpace=wrap;html=1;aspect=fixed;fillColor=#3333FF;" parent="WIyWlLk6GJQsqaUBKTNV-1" vertex="1">
          <mxGeometry x="316.25" y="306.25" width="7.5" height="7.5" as="geometry" />
        </mxCell>
        <mxCell id="trcUUFW1OaZWTTXaqjhK-23" value="" style="ellipse;whiteSpace=wrap;html=1;aspect=fixed;fillColor=#3333FF;" parent="WIyWlLk6GJQsqaUBKTNV-1" vertex="1">
          <mxGeometry x="431.25" y="305" width="7.5" height="7.5" as="geometry" />
        </mxCell>
        <mxCell id="trcUUFW1OaZWTTXaqjhK-24" value="" style="ellipse;whiteSpace=wrap;html=1;aspect=fixed;fillColor=#3333FF;" parent="WIyWlLk6GJQsqaUBKTNV-1" vertex="1">
          <mxGeometry x="414" y="366.25" width="7.5" height="7.5" as="geometry" />
        </mxCell>
        <mxCell id="trcUUFW1OaZWTTXaqjhK-25" value="" style="ellipse;whiteSpace=wrap;html=1;aspect=fixed;fillColor=#3333FF;" parent="WIyWlLk6GJQsqaUBKTNV-1" vertex="1">
          <mxGeometry x="360" y="366.25" width="7.5" height="7.5" as="geometry" />
        </mxCell>
        <mxCell id="trcUUFW1OaZWTTXaqjhK-26" value="" style="ellipse;whiteSpace=wrap;html=1;aspect=fixed;fillColor=#3333FF;" parent="WIyWlLk6GJQsqaUBKTNV-1" vertex="1">
          <mxGeometry x="312.5" y="366.25" width="7.5" height="7.5" as="geometry" />
        </mxCell>
        <mxCell id="trcUUFW1OaZWTTXaqjhK-27" value="" style="ellipse;whiteSpace=wrap;html=1;aspect=fixed;fillColor=#3333FF;" parent="WIyWlLk6GJQsqaUBKTNV-1" vertex="1">
          <mxGeometry x="65" y="127.5" width="5" height="5" as="geometry" />
        </mxCell>
        <mxCell id="trcUUFW1OaZWTTXaqjhK-42" value="" style="endArrow=classic;startArrow=classic;html=1;rounded=0;entryX=0.389;entryY=0;entryDx=0;entryDy=0;entryPerimeter=0;exitX=1;exitY=0.5;exitDx=0;exitDy=0;" parent="WIyWlLk6GJQsqaUBKTNV-1" source="trcUUFW1OaZWTTXaqjhK-1" target="fTDlbqhUCNYveoykN_zY-68" edge="1">
          <mxGeometry width="50" height="50" relative="1" as="geometry">
            <mxPoint x="180" y="173" as="sourcePoint" />
            <mxPoint x="430" y="230" as="targetPoint" />
            <Array as="points">
              <mxPoint x="260" y="173" />
            </Array>
          </mxGeometry>
        </mxCell>
        <mxCell id="trcUUFW1OaZWTTXaqjhK-44" value="" style="endArrow=classic;startArrow=classic;html=1;rounded=0;entryX=0.5;entryY=1;entryDx=0;entryDy=0;exitX=0.5;exitY=0;exitDx=0;exitDy=0;" parent="WIyWlLk6GJQsqaUBKTNV-1" source="trcUUFW1OaZWTTXaqjhK-4" target="trcUUFW1OaZWTTXaqjhK-1" edge="1">
          <mxGeometry width="50" height="50" relative="1" as="geometry">
            <mxPoint x="380" y="280" as="sourcePoint" />
            <mxPoint x="430" y="230" as="targetPoint" />
          </mxGeometry>
        </mxCell>
        <mxCell id="trcUUFW1OaZWTTXaqjhK-48" value="" style="ellipse;whiteSpace=wrap;html=1;aspect=fixed;fillColor=#3333FF;" parent="WIyWlLk6GJQsqaUBKTNV-1" vertex="1">
          <mxGeometry x="460" y="67.5" width="7.5" height="7.5" as="geometry" />
        </mxCell>
        <mxCell id="trcUUFW1OaZWTTXaqjhK-49" value="&lt;font style=&quot;font-size: 8px;&quot;&gt;(1,N)&lt;/font&gt;" style="text;html=1;align=center;verticalAlign=middle;resizable=0;points=[];autosize=1;strokeColor=none;fillColor=none;" parent="WIyWlLk6GJQsqaUBKTNV-1" vertex="1">
          <mxGeometry x="130" y="198" width="40" height="30" as="geometry" />
        </mxCell>
        <mxCell id="trcUUFW1OaZWTTXaqjhK-50" value="&lt;font style=&quot;font-size: 8px;&quot;&gt;(1,N)&lt;/font&gt;" style="text;html=1;align=center;verticalAlign=middle;resizable=0;points=[];autosize=1;strokeColor=none;fillColor=none;" parent="WIyWlLk6GJQsqaUBKTNV-1" vertex="1">
          <mxGeometry x="120" y="108" width="40" height="30" as="geometry" />
        </mxCell>
        <mxCell id="trcUUFW1OaZWTTXaqjhK-51" value="&lt;font style=&quot;font-size: 8px;&quot;&gt;(1,1)&lt;/font&gt;" style="text;html=1;align=center;verticalAlign=middle;resizable=0;points=[];autosize=1;strokeColor=none;fillColor=none;" parent="WIyWlLk6GJQsqaUBKTNV-1" vertex="1">
          <mxGeometry x="283.75" y="110" width="40" height="30" as="geometry" />
        </mxCell>
        <mxCell id="trcUUFW1OaZWTTXaqjhK-52" value="&lt;font style=&quot;font-size: 8px;&quot;&gt;(1,N)&lt;/font&gt;" style="text;html=1;align=center;verticalAlign=middle;resizable=0;points=[];autosize=1;strokeColor=none;fillColor=none;" parent="WIyWlLk6GJQsqaUBKTNV-1" vertex="1">
          <mxGeometry x="170" y="148" width="40" height="30" as="geometry" />
        </mxCell>
        <mxCell id="trcUUFW1OaZWTTXaqjhK-55" value="&lt;font style=&quot;font-size: 9px;&quot;&gt;IdEndereco&lt;/font&gt;" style="text;html=1;align=center;verticalAlign=middle;resizable=0;points=[];autosize=1;strokeColor=none;fillColor=none;" parent="WIyWlLk6GJQsqaUBKTNV-1" vertex="1">
          <mxGeometry x="95" y="56.25" width="70" height="30" as="geometry" />
        </mxCell>
        <mxCell id="trcUUFW1OaZWTTXaqjhK-56" value="" style="ellipse;whiteSpace=wrap;html=1;aspect=fixed;fillColor=#3333FF;" parent="WIyWlLk6GJQsqaUBKTNV-1" vertex="1">
          <mxGeometry x="97.5" y="67.5" width="7.5" height="7.5" as="geometry" />
        </mxCell>
        <mxCell id="trcUUFW1OaZWTTXaqjhK-62" style="edgeStyle=orthogonalEdgeStyle;rounded=0;orthogonalLoop=1;jettySize=auto;html=1;entryX=0.817;entryY=-0.017;entryDx=0;entryDy=0;entryPerimeter=0;" parent="WIyWlLk6GJQsqaUBKTNV-1" source="fTDlbqhUCNYveoykN_zY-14" target="fTDlbqhUCNYveoykN_zY-0" edge="1">
          <mxGeometry relative="1" as="geometry" />
        </mxCell>
        <mxCell id="nzJIaV9Nok3M1dJ2iumO-6" value="" style="edgeStyle=orthogonalEdgeStyle;rounded=0;orthogonalLoop=1;jettySize=auto;html=1;" parent="WIyWlLk6GJQsqaUBKTNV-1" source="nzJIaV9Nok3M1dJ2iumO-1" target="nzJIaV9Nok3M1dJ2iumO-3" edge="1">
          <mxGeometry relative="1" as="geometry" />
        </mxCell>
        <mxCell id="nzJIaV9Nok3M1dJ2iumO-1" value="Gera" style="rhombus;whiteSpace=wrap;html=1;" parent="WIyWlLk6GJQsqaUBKTNV-1" vertex="1">
          <mxGeometry x="217.5" y="390" width="80" height="50" as="geometry" />
        </mxCell>
        <mxCell id="nzJIaV9Nok3M1dJ2iumO-2" style="edgeStyle=orthogonalEdgeStyle;rounded=0;orthogonalLoop=1;jettySize=auto;html=1;exitX=0.5;exitY=1;exitDx=0;exitDy=0;" parent="WIyWlLk6GJQsqaUBKTNV-1" source="nzJIaV9Nok3M1dJ2iumO-1" target="nzJIaV9Nok3M1dJ2iumO-1" edge="1">
          <mxGeometry relative="1" as="geometry" />
        </mxCell>
        <mxCell id="nzJIaV9Nok3M1dJ2iumO-3" value="vw_Comanda" style="rounded=1;whiteSpace=wrap;html=1;" parent="WIyWlLk6GJQsqaUBKTNV-1" vertex="1">
          <mxGeometry x="197.5" y="470" width="120" height="40" as="geometry" />
        </mxCell>
        <mxCell id="nzJIaV9Nok3M1dJ2iumO-8" value="&lt;font style=&quot;font-size: 8px;&quot;&gt;(1,N)&lt;/font&gt;" style="text;html=1;align=center;verticalAlign=middle;resizable=0;points=[];autosize=1;strokeColor=none;fillColor=none;" parent="WIyWlLk6GJQsqaUBKTNV-1" vertex="1">
          <mxGeometry x="267" y="357.75" width="40" height="30" as="geometry" />
        </mxCell>
        <mxCell id="nzJIaV9Nok3M1dJ2iumO-9" value="&lt;font style=&quot;font-size: 8px;&quot;&gt;(1,N)&lt;/font&gt;" style="text;html=1;align=center;verticalAlign=middle;resizable=0;points=[];autosize=1;strokeColor=none;fillColor=none;" parent="WIyWlLk6GJQsqaUBKTNV-1" vertex="1">
          <mxGeometry x="250" y="440" width="40" height="30" as="geometry" />
        </mxCell>
        <mxCell id="nzJIaV9Nok3M1dJ2iumO-10" value="&lt;font style=&quot;font-size: 8px;&quot;&gt;(1,N)&lt;/font&gt;" style="text;html=1;align=center;verticalAlign=middle;resizable=0;points=[];autosize=1;strokeColor=none;fillColor=none;" parent="WIyWlLk6GJQsqaUBKTNV-1" vertex="1">
          <mxGeometry x="200" y="358" width="40" height="30" as="geometry" />
        </mxCell>
        <mxCell id="nzJIaV9Nok3M1dJ2iumO-11" value="&lt;font style=&quot;font-size: 8px;&quot;&gt;(1,N)&lt;/font&gt;" style="text;html=1;align=center;verticalAlign=middle;resizable=0;points=[];autosize=1;strokeColor=none;fillColor=none;" parent="WIyWlLk6GJQsqaUBKTNV-1" vertex="1">
          <mxGeometry x="220" y="441" width="40" height="30" as="geometry" />
        </mxCell>
        <mxCell id="nzJIaV9Nok3M1dJ2iumO-12" value="" style="ellipse;whiteSpace=wrap;html=1;aspect=fixed;fillColor=#3333FF;" parent="WIyWlLk6GJQsqaUBKTNV-1" vertex="1">
          <mxGeometry x="197.5" y="520" width="7.5" height="7.5" as="geometry" />
        </mxCell>
        <mxCell id="nzJIaV9Nok3M1dJ2iumO-13" value="&lt;font style=&quot;font-size: 8px;&quot;&gt;IdCliente&lt;/font&gt;" style="text;html=1;align=center;verticalAlign=middle;resizable=0;points=[];autosize=1;strokeColor=none;fillColor=none;" parent="WIyWlLk6GJQsqaUBKTNV-1" vertex="1">
          <mxGeometry x="194" y="508" width="60" height="30" as="geometry" />
        </mxCell>
        <mxCell id="nzJIaV9Nok3M1dJ2iumO-14" value="&lt;font style=&quot;font-size: 8px;&quot;&gt;NomeProduto&lt;/font&gt;" style="text;html=1;align=center;verticalAlign=middle;resizable=0;points=[];autosize=1;strokeColor=none;fillColor=none;" parent="WIyWlLk6GJQsqaUBKTNV-1" vertex="1">
          <mxGeometry x="235" y="508" width="70" height="30" as="geometry" />
        </mxCell>
        <mxCell id="nzJIaV9Nok3M1dJ2iumO-15" value="&lt;font style=&quot;font-size: 8px;&quot;&gt;Qtde&lt;/font&gt;" style="text;html=1;align=center;verticalAlign=middle;resizable=0;points=[];autosize=1;strokeColor=none;fillColor=none;" parent="WIyWlLk6GJQsqaUBKTNV-1" vertex="1">
          <mxGeometry x="292" y="508" width="40" height="30" as="geometry" />
        </mxCell>
        <mxCell id="xuyxnT8PcBtt5X0X_6aa-0" value="&lt;font style=&quot;font-size: 9px;&quot;&gt;Qtde&lt;/font&gt;" style="text;html=1;align=center;verticalAlign=middle;resizable=0;points=[];autosize=1;strokeColor=none;fillColor=none;" vertex="1" parent="WIyWlLk6GJQsqaUBKTNV-1">
          <mxGeometry x="415" y="373.75" width="40" height="30" as="geometry" />
        </mxCell>
        <mxCell id="xuyxnT8PcBtt5X0X_6aa-1" value="&lt;font style=&quot;font-size: 9px;&quot;&gt;IdPedido&lt;/font&gt;" style="text;html=1;align=center;verticalAlign=middle;resizable=0;points=[];autosize=1;strokeColor=none;fillColor=none;" vertex="1" parent="WIyWlLk6GJQsqaUBKTNV-1">
          <mxGeometry x="312.5" y="370" width="60" height="30" as="geometry" />
        </mxCell>
        <mxCell id="xuyxnT8PcBtt5X0X_6aa-3" value="" style="ellipse;whiteSpace=wrap;html=1;aspect=fixed;fillColor=#000000;" vertex="1" parent="WIyWlLk6GJQsqaUBKTNV-1">
          <mxGeometry x="310" y="379" width="12" height="12" as="geometry" />
        </mxCell>
      </root>
    </mxGraphModel>
  </diagram>
  <diagram name="Card_PeDeGalinha" id="BRbW9B-Q2YhM3T3BJk_M">
    <mxGraphModel dx="934" dy="534" grid="1" gridSize="10" guides="1" tooltips="1" connect="1" arrows="1" fold="1" page="1" pageScale="1" pageWidth="827" pageHeight="1169" math="0" shadow="0">
      <root>
        <mxCell id="B1xsRvdfn8lzBRPcYKLo-0" />
        <mxCell id="B1xsRvdfn8lzBRPcYKLo-1" parent="B1xsRvdfn8lzBRPcYKLo-0" />
        <mxCell id="B1xsRvdfn8lzBRPcYKLo-3" value="Cliente" style="rounded=1;whiteSpace=wrap;html=1;fontSize=12;glass=0;strokeWidth=1;shadow=0;" vertex="1" parent="B1xsRvdfn8lzBRPcYKLo-1">
          <mxGeometry x="70" y="80" width="120" height="40" as="geometry" />
        </mxCell>
        <mxCell id="B1xsRvdfn8lzBRPcYKLo-4" value="Faz" style="rhombus;whiteSpace=wrap;html=1;shadow=0;fontFamily=Helvetica;fontSize=12;align=center;strokeWidth=1;spacing=6;spacingTop=-4;" vertex="1" parent="B1xsRvdfn8lzBRPcYKLo-1">
          <mxGeometry x="217.5" y="208" width="85" height="50" as="geometry" />
        </mxCell>
        <mxCell id="B1xsRvdfn8lzBRPcYKLo-5" value="EndereÃ§o" style="rounded=1;whiteSpace=wrap;html=1;fontSize=12;glass=0;strokeWidth=1;shadow=0;" vertex="1" parent="B1xsRvdfn8lzBRPcYKLo-1">
          <mxGeometry x="345" y="80" width="120" height="40" as="geometry" />
        </mxCell>
        <mxCell id="B1xsRvdfn8lzBRPcYKLo-6" value="Pagamento" style="rounded=1;whiteSpace=wrap;html=1;fontSize=12;glass=0;strokeWidth=1;shadow=0;" vertex="1" parent="B1xsRvdfn8lzBRPcYKLo-1">
          <mxGeometry x="330" y="150" width="120" height="30" as="geometry" />
        </mxCell>
        <mxCell id="B1xsRvdfn8lzBRPcYKLo-7" value="Produto" style="rounded=1;whiteSpace=wrap;html=1;fontSize=12;glass=0;strokeWidth=1;shadow=0;" vertex="1" parent="B1xsRvdfn8lzBRPcYKLo-1">
          <mxGeometry x="60" y="320" width="120" height="40" as="geometry" />
        </mxCell>
        <mxCell id="B1xsRvdfn8lzBRPcYKLo-10" value="Pedido" style="rounded=1;whiteSpace=wrap;html=1;" vertex="1" parent="B1xsRvdfn8lzBRPcYKLo-1">
          <mxGeometry x="330" y="320" width="120" height="40" as="geometry" />
        </mxCell>
        <mxCell id="B1xsRvdfn8lzBRPcYKLo-11" value="Canal" style="rounded=1;whiteSpace=wrap;html=1;" vertex="1" parent="B1xsRvdfn8lzBRPcYKLo-1">
          <mxGeometry x="580" y="320" width="120" height="40" as="geometry" />
        </mxCell>
        <mxCell id="B1xsRvdfn8lzBRPcYKLo-13" value="Funcionario" style="rounded=1;whiteSpace=wrap;html=1;" vertex="1" parent="B1xsRvdfn8lzBRPcYKLo-1">
          <mxGeometry x="590" y="220" width="120" height="40" as="geometry" />
        </mxCell>
        <mxCell id="B1xsRvdfn8lzBRPcYKLo-15" value="Possui" style="rhombus;whiteSpace=wrap;html=1;" vertex="1" parent="B1xsRvdfn8lzBRPcYKLo-1">
          <mxGeometry x="220" y="75" width="80" height="50" as="geometry" />
        </mxCell>
        <mxCell id="B1xsRvdfn8lzBRPcYKLo-16" value="Registra" style="rhombus;whiteSpace=wrap;html=1;" vertex="1" parent="B1xsRvdfn8lzBRPcYKLo-1">
          <mxGeometry x="480" y="215" width="80" height="50" as="geometry" />
        </mxCell>
        <mxCell id="B1xsRvdfn8lzBRPcYKLo-18" value="Pertence" style="rhombus;whiteSpace=wrap;html=1;" vertex="1" parent="B1xsRvdfn8lzBRPcYKLo-1">
          <mxGeometry x="480" y="315" width="80" height="50" as="geometry" />
        </mxCell>
        <mxCell id="B1xsRvdfn8lzBRPcYKLo-20" value="Gera" style="rhombus;whiteSpace=wrap;html=1;" vertex="1" parent="B1xsRvdfn8lzBRPcYKLo-1">
          <mxGeometry x="210" y="315" width="80" height="50" as="geometry" />
        </mxCell>
        <mxCell id="B1xsRvdfn8lzBRPcYKLo-23" value="&lt;font style=&quot;font-size: 9px;&quot;&gt;NomeCliente&lt;/font&gt;" style="text;html=1;align=center;verticalAlign=middle;resizable=0;points=[];autosize=1;strokeColor=none;fillColor=none;" vertex="1" parent="B1xsRvdfn8lzBRPcYKLo-1">
          <mxGeometry x="122" y="111" width="80" height="30" as="geometry" />
        </mxCell>
        <mxCell id="B1xsRvdfn8lzBRPcYKLo-24" value="&lt;font style=&quot;font-size: 9px;&quot;&gt;IdCliente&lt;/font&gt;" style="text;html=1;align=center;verticalAlign=middle;resizable=0;points=[];autosize=1;strokeColor=none;fillColor=none;" vertex="1" parent="B1xsRvdfn8lzBRPcYKLo-1">
          <mxGeometry x="74" y="55" width="60" height="30" as="geometry" />
        </mxCell>
        <mxCell id="B1xsRvdfn8lzBRPcYKLo-25" value="" style="ellipse;whiteSpace=wrap;html=1;aspect=fixed;fillColor=#000000;" vertex="1" parent="B1xsRvdfn8lzBRPcYKLo-1">
          <mxGeometry x="60" y="130" as="geometry" />
        </mxCell>
        <mxCell id="B1xsRvdfn8lzBRPcYKLo-26" value="&lt;font style=&quot;font-size: 9px;&quot;&gt;Telefone&lt;/font&gt;" style="text;html=1;align=center;verticalAlign=middle;resizable=0;points=[];autosize=1;strokeColor=none;fillColor=none;" vertex="1" parent="B1xsRvdfn8lzBRPcYKLo-1">
          <mxGeometry x="456" y="116" width="60" height="30" as="geometry" />
        </mxCell>
        <mxCell id="B1xsRvdfn8lzBRPcYKLo-27" value="&lt;font style=&quot;font-size: 9px;&quot;&gt;Logradouro&lt;/font&gt;" style="text;html=1;align=center;verticalAlign=middle;resizable=0;points=[];autosize=1;strokeColor=none;fillColor=none;" vertex="1" parent="B1xsRvdfn8lzBRPcYKLo-1">
          <mxGeometry x="457" y="68" width="70" height="30" as="geometry" />
        </mxCell>
        <mxCell id="B1xsRvdfn8lzBRPcYKLo-28" value="&lt;font style=&quot;font-size: 9px;&quot;&gt;IdCliente&lt;/font&gt;" style="text;html=1;align=center;verticalAlign=middle;resizable=0;points=[];autosize=1;strokeColor=none;fillColor=none;" vertex="1" parent="B1xsRvdfn8lzBRPcYKLo-1">
          <mxGeometry x="415" y="55" width="60" height="30" as="geometry" />
        </mxCell>
        <mxCell id="B1xsRvdfn8lzBRPcYKLo-29" value="" style="ellipse;whiteSpace=wrap;html=1;aspect=fixed;" vertex="1" parent="B1xsRvdfn8lzBRPcYKLo-1">
          <mxGeometry x="414" y="65" width="10" height="10" as="geometry" />
        </mxCell>
        <mxCell id="B1xsRvdfn8lzBRPcYKLo-30" value="&lt;font style=&quot;font-size: 9px;&quot;&gt;Numero&lt;/font&gt;" style="text;html=1;align=center;verticalAlign=middle;resizable=0;points=[];autosize=1;strokeColor=none;fillColor=none;" vertex="1" parent="B1xsRvdfn8lzBRPcYKLo-1">
          <mxGeometry x="455" y="81" width="60" height="30" as="geometry" />
        </mxCell>
        <mxCell id="B1xsRvdfn8lzBRPcYKLo-31" value="&lt;font style=&quot;font-size: 9px;&quot;&gt;Bairro&lt;/font&gt;" style="text;html=1;align=center;verticalAlign=middle;resizable=0;points=[];autosize=1;strokeColor=none;fillColor=none;" vertex="1" parent="B1xsRvdfn8lzBRPcYKLo-1">
          <mxGeometry x="456" y="93" width="50" height="30" as="geometry" />
        </mxCell>
        <mxCell id="B1xsRvdfn8lzBRPcYKLo-32" value="&lt;font style=&quot;font-size: 9px;&quot;&gt;Cidade&lt;/font&gt;" style="text;html=1;align=center;verticalAlign=middle;resizable=0;points=[];autosize=1;strokeColor=none;fillColor=none;" vertex="1" parent="B1xsRvdfn8lzBRPcYKLo-1">
          <mxGeometry x="457" y="104" width="50" height="30" as="geometry" />
        </mxCell>
        <mxCell id="B1xsRvdfn8lzBRPcYKLo-33" value="&lt;font style=&quot;font-size: 9px;&quot;&gt;IdPgto&lt;/font&gt;" style="text;html=1;align=center;verticalAlign=middle;resizable=0;points=[];autosize=1;strokeColor=none;fillColor=none;" vertex="1" parent="B1xsRvdfn8lzBRPcYKLo-1">
          <mxGeometry x="337" y="127" width="50" height="30" as="geometry" />
        </mxCell>
        <mxCell id="B1xsRvdfn8lzBRPcYKLo-34" value="&lt;font style=&quot;font-size: 9px;&quot;&gt;DescrPagamento&lt;/font&gt;" style="text;html=1;align=center;verticalAlign=middle;resizable=0;points=[];autosize=1;strokeColor=none;fillColor=none;" vertex="1" parent="B1xsRvdfn8lzBRPcYKLo-1">
          <mxGeometry x="369" y="127" width="90" height="30" as="geometry" />
        </mxCell>
        <mxCell id="B1xsRvdfn8lzBRPcYKLo-35" value="" style="ellipse;whiteSpace=wrap;html=1;aspect=fixed;fillColor=#000000;" vertex="1" parent="B1xsRvdfn8lzBRPcYKLo-1">
          <mxGeometry x="335" y="137" width="10" height="10" as="geometry" />
        </mxCell>
        <mxCell id="B1xsRvdfn8lzBRPcYKLo-36" value="&lt;font style=&quot;font-size: 9px;&quot;&gt;IdProduto&lt;/font&gt;" style="text;html=1;align=center;verticalAlign=middle;resizable=0;points=[];autosize=1;strokeColor=none;fillColor=none;" vertex="1" parent="B1xsRvdfn8lzBRPcYKLo-1">
          <mxGeometry x="62" y="290" width="60" height="30" as="geometry" />
        </mxCell>
        <mxCell id="B1xsRvdfn8lzBRPcYKLo-37" value="&lt;font style=&quot;font-size: 9px;&quot;&gt;NomeProduto&lt;/font&gt;" style="text;html=1;align=center;verticalAlign=middle;resizable=0;points=[];autosize=1;strokeColor=none;fillColor=none;" vertex="1" parent="B1xsRvdfn8lzBRPcYKLo-1">
          <mxGeometry x="122" y="290" width="80" height="30" as="geometry" />
        </mxCell>
        <mxCell id="B1xsRvdfn8lzBRPcYKLo-40" value="" style="ellipse;whiteSpace=wrap;html=1;aspect=fixed;fillColor=#000000;" vertex="1" parent="B1xsRvdfn8lzBRPcYKLo-1">
          <mxGeometry x="60" y="300" width="10" height="10" as="geometry" />
        </mxCell>
        <mxCell id="B1xsRvdfn8lzBRPcYKLo-41" value="&lt;font style=&quot;font-size: 9px;&quot;&gt;IdFunc&lt;/font&gt;" style="text;html=1;align=center;verticalAlign=middle;resizable=0;points=[];autosize=1;strokeColor=none;fillColor=none;" vertex="1" parent="B1xsRvdfn8lzBRPcYKLo-1">
          <mxGeometry x="595" y="196" width="50" height="30" as="geometry" />
        </mxCell>
        <mxCell id="B1xsRvdfn8lzBRPcYKLo-42" value="&lt;font style=&quot;font-size: 9px;&quot;&gt;CargoFuncionario&lt;/font&gt;" style="text;html=1;align=center;verticalAlign=middle;resizable=0;points=[];autosize=1;strokeColor=none;fillColor=none;" vertex="1" parent="B1xsRvdfn8lzBRPcYKLo-1">
          <mxGeometry x="625" y="197" width="100" height="30" as="geometry" />
        </mxCell>
        <mxCell id="B1xsRvdfn8lzBRPcYKLo-43" value="&lt;font style=&quot;font-size: 9px;&quot;&gt;NomeFuncionario&lt;/font&gt;" style="text;html=1;align=center;verticalAlign=middle;resizable=0;points=[];autosize=1;strokeColor=none;fillColor=none;" vertex="1" parent="B1xsRvdfn8lzBRPcYKLo-1">
          <mxGeometry x="584" y="255" width="90" height="30" as="geometry" />
        </mxCell>
        <mxCell id="B1xsRvdfn8lzBRPcYKLo-44" value="" style="ellipse;whiteSpace=wrap;html=1;aspect=fixed;fillColor=#000000;" vertex="1" parent="B1xsRvdfn8lzBRPcYKLo-1">
          <mxGeometry x="592" y="205" width="12" height="12" as="geometry" />
        </mxCell>
        <mxCell id="B1xsRvdfn8lzBRPcYKLo-45" value="&lt;font style=&quot;font-size: 9px;&quot;&gt;IdCanal&lt;/font&gt;" style="text;html=1;align=center;verticalAlign=middle;resizable=0;points=[];autosize=1;strokeColor=none;fillColor=none;" vertex="1" parent="B1xsRvdfn8lzBRPcYKLo-1">
          <mxGeometry x="585" y="293" width="50" height="30" as="geometry" />
        </mxCell>
        <mxCell id="B1xsRvdfn8lzBRPcYKLo-46" value="&lt;font style=&quot;font-size: 9px;&quot;&gt;DescrCanal&lt;/font&gt;" style="text;html=1;align=center;verticalAlign=middle;resizable=0;points=[];autosize=1;strokeColor=none;fillColor=none;" vertex="1" parent="B1xsRvdfn8lzBRPcYKLo-1">
          <mxGeometry x="637" y="293" width="70" height="30" as="geometry" />
        </mxCell>
        <mxCell id="B1xsRvdfn8lzBRPcYKLo-47" value="" style="ellipse;whiteSpace=wrap;html=1;aspect=fixed;fillColor=#000000;" vertex="1" parent="B1xsRvdfn8lzBRPcYKLo-1">
          <mxGeometry x="580" y="302" width="12" height="12" as="geometry" />
        </mxCell>
        <mxCell id="B1xsRvdfn8lzBRPcYKLo-48" value="&lt;font style=&quot;font-size: 9px;&quot;&gt;IdCliente&lt;/font&gt;" style="text;html=1;align=center;verticalAlign=middle;resizable=0;points=[];autosize=1;strokeColor=none;fillColor=none;" vertex="1" parent="B1xsRvdfn8lzBRPcYKLo-1">
          <mxGeometry x="332" y="353" width="60" height="30" as="geometry" />
        </mxCell>
        <mxCell id="B1xsRvdfn8lzBRPcYKLo-49" value="&lt;font style=&quot;font-size: 9px;&quot;&gt;IdProduto&lt;/font&gt;" style="text;html=1;align=center;verticalAlign=middle;resizable=0;points=[];autosize=1;strokeColor=none;fillColor=none;" vertex="1" parent="B1xsRvdfn8lzBRPcYKLo-1">
          <mxGeometry x="384" y="353" width="60" height="30" as="geometry" />
        </mxCell>
        <mxCell id="B1xsRvdfn8lzBRPcYKLo-50" value="&lt;font style=&quot;font-size: 9px;&quot;&gt;IdPgto&lt;/font&gt;" style="text;html=1;align=center;verticalAlign=middle;resizable=0;points=[];autosize=1;strokeColor=none;fillColor=none;" vertex="1" parent="B1xsRvdfn8lzBRPcYKLo-1">
          <mxGeometry x="383" y="367" width="50" height="30" as="geometry" />
        </mxCell>
        <mxCell id="B1xsRvdfn8lzBRPcYKLo-51" value="&lt;font style=&quot;font-size: 9px;&quot;&gt;IdCanal&lt;/font&gt;" style="text;html=1;align=center;verticalAlign=middle;resizable=0;points=[];autosize=1;strokeColor=none;fillColor=none;" vertex="1" parent="B1xsRvdfn8lzBRPcYKLo-1">
          <mxGeometry x="335" y="367" width="50" height="30" as="geometry" />
        </mxCell>
        <mxCell id="B1xsRvdfn8lzBRPcYKLo-52" value="&lt;font style=&quot;font-size: 9px;&quot;&gt;IdFunc&lt;/font&gt;" style="text;html=1;align=center;verticalAlign=middle;resizable=0;points=[];autosize=1;strokeColor=none;fillColor=none;" vertex="1" parent="B1xsRvdfn8lzBRPcYKLo-1">
          <mxGeometry x="333" y="380" width="50" height="30" as="geometry" />
        </mxCell>
        <mxCell id="B1xsRvdfn8lzBRPcYKLo-55" value="&lt;font style=&quot;font-size: 9px;&quot;&gt;Pertence&lt;/font&gt;" style="rhombus;whiteSpace=wrap;html=1;" vertex="1" parent="B1xsRvdfn8lzBRPcYKLo-1">
          <mxGeometry x="365" y="215.5" width="50" height="42.5" as="geometry" />
        </mxCell>
        <mxCell id="B1xsRvdfn8lzBRPcYKLo-69" value="" style="ellipse;whiteSpace=wrap;html=1;aspect=fixed;fillColor=#000000;" vertex="1" parent="B1xsRvdfn8lzBRPcYKLo-1">
          <mxGeometry x="73" y="65" width="10" height="10" as="geometry" />
        </mxCell>
        <mxCell id="B1xsRvdfn8lzBRPcYKLo-70" value="&lt;font style=&quot;font-size: 8px;&quot;&gt;IdPedido&lt;/font&gt;" style="text;html=1;align=center;verticalAlign=middle;resizable=0;points=[];autosize=1;strokeColor=none;fillColor=none;" vertex="1" parent="B1xsRvdfn8lzBRPcYKLo-1">
          <mxGeometry x="127" y="55" width="60" height="30" as="geometry" />
        </mxCell>
        <mxCell id="bsOetn94x2Og_q4w2dJg-0" value="" style="edgeStyle=orthogonalEdgeStyle;fontSize=12;html=1;endArrow=ERmandOne;rounded=0;entryX=0.5;entryY=1;entryDx=0;entryDy=0;exitX=0;exitY=0.5;exitDx=0;exitDy=0;" edge="1" parent="B1xsRvdfn8lzBRPcYKLo-1" source="B1xsRvdfn8lzBRPcYKLo-4" target="B1xsRvdfn8lzBRPcYKLo-3">
          <mxGeometry width="100" height="100" relative="1" as="geometry">
            <mxPoint x="30" y="240" as="sourcePoint" />
            <mxPoint x="130" y="140" as="targetPoint" />
          </mxGeometry>
        </mxCell>
        <mxCell id="B9LtDPsS9D5GuqWtrx-q-0" value="" style="edgeStyle=orthogonalEdgeStyle;fontSize=12;html=1;endArrow=ERoneToMany;rounded=0;exitX=1;exitY=0.5;exitDx=0;exitDy=0;" edge="1" parent="B1xsRvdfn8lzBRPcYKLo-1" source="B1xsRvdfn8lzBRPcYKLo-4">
          <mxGeometry width="100" height="100" relative="1" as="geometry">
            <mxPoint x="297.31999999999994" y="234.67999999999995" as="sourcePoint" />
            <mxPoint x="345" y="320" as="targetPoint" />
          </mxGeometry>
        </mxCell>
        <mxCell id="B9LtDPsS9D5GuqWtrx-q-1" value="" style="edgeStyle=orthogonalEdgeStyle;fontSize=12;html=1;endArrow=ERmandOne;rounded=0;entryX=1;entryY=0.5;entryDx=0;entryDy=0;" edge="1" parent="B1xsRvdfn8lzBRPcYKLo-1" source="B1xsRvdfn8lzBRPcYKLo-15" target="B1xsRvdfn8lzBRPcYKLo-3">
          <mxGeometry width="100" height="100" relative="1" as="geometry">
            <mxPoint x="225" y="245" as="sourcePoint" />
            <mxPoint x="140" y="130" as="targetPoint" />
          </mxGeometry>
        </mxCell>
        <mxCell id="B9LtDPsS9D5GuqWtrx-q-2" value="" style="edgeStyle=orthogonalEdgeStyle;fontSize=12;html=1;endArrow=ERoneToMany;rounded=0;exitX=1;exitY=0.5;exitDx=0;exitDy=0;entryX=0;entryY=0.5;entryDx=0;entryDy=0;" edge="1" parent="B1xsRvdfn8lzBRPcYKLo-1" source="B1xsRvdfn8lzBRPcYKLo-15" target="B1xsRvdfn8lzBRPcYKLo-5">
          <mxGeometry width="100" height="100" relative="1" as="geometry">
            <mxPoint x="300" y="160" as="sourcePoint" />
            <mxPoint x="340" y="100" as="targetPoint" />
          </mxGeometry>
        </mxCell>
        <mxCell id="B9LtDPsS9D5GuqWtrx-q-3" value="" style="edgeStyle=orthogonalEdgeStyle;fontSize=12;html=1;endArrow=ERoneToMany;rounded=0;exitX=0;exitY=0.5;exitDx=0;exitDy=0;entryX=1;entryY=0.5;entryDx=0;entryDy=0;" edge="1" parent="B1xsRvdfn8lzBRPcYKLo-1" source="B1xsRvdfn8lzBRPcYKLo-20" target="B1xsRvdfn8lzBRPcYKLo-7">
          <mxGeometry width="100" height="100" relative="1" as="geometry">
            <mxPoint x="240" y="388" as="sourcePoint" />
            <mxPoint x="282" y="475" as="targetPoint" />
          </mxGeometry>
        </mxCell>
        <mxCell id="B9LtDPsS9D5GuqWtrx-q-9" value="" style="fontSize=12;html=1;endArrow=ERzeroToOne;endFill=0;rounded=0;entryX=0;entryY=0.5;entryDx=0;entryDy=0;exitX=1;exitY=0.5;exitDx=0;exitDy=0;" edge="1" parent="B1xsRvdfn8lzBRPcYKLo-1" source="B1xsRvdfn8lzBRPcYKLo-20" target="B1xsRvdfn8lzBRPcYKLo-10">
          <mxGeometry width="100" height="100" relative="1" as="geometry">
            <mxPoint x="210" y="385" as="sourcePoint" />
            <mxPoint x="310" y="285" as="targetPoint" />
          </mxGeometry>
        </mxCell>
        <mxCell id="igPUDaMPQfpU1xsEoiD0-1" value="" style="edgeStyle=orthogonalEdgeStyle;fontSize=12;html=1;endArrow=none;rounded=0;entryX=0;entryY=0.5;entryDx=0;entryDy=0;startArrow=ERmandOne;startFill=0;endFill=0;exitX=1;exitY=0.5;exitDx=0;exitDy=0;" edge="1" parent="B1xsRvdfn8lzBRPcYKLo-1" source="B1xsRvdfn8lzBRPcYKLo-10" target="B1xsRvdfn8lzBRPcYKLo-18">
          <mxGeometry width="100" height="100" relative="1" as="geometry">
            <mxPoint x="490" y="400" as="sourcePoint" />
            <mxPoint x="480" y="285" as="targetPoint" />
          </mxGeometry>
        </mxCell>
        <mxCell id="igPUDaMPQfpU1xsEoiD0-2" value="" style="edgeStyle=orthogonalEdgeStyle;fontSize=12;html=1;endArrow=none;rounded=0;startArrow=ERmandOne;startFill=0;endFill=0;exitX=0;exitY=0.5;exitDx=0;exitDy=0;" edge="1" parent="B1xsRvdfn8lzBRPcYKLo-1" source="B1xsRvdfn8lzBRPcYKLo-11" target="B1xsRvdfn8lzBRPcYKLo-18">
          <mxGeometry width="100" height="100" relative="1" as="geometry">
            <mxPoint x="565" y="355" as="sourcePoint" />
            <mxPoint x="565" y="415" as="targetPoint" />
          </mxGeometry>
        </mxCell>
        <mxCell id="igPUDaMPQfpU1xsEoiD0-3" value="" style="edgeStyle=orthogonalEdgeStyle;fontSize=12;html=1;endArrow=ERzeroToOne;rounded=0;entryX=0.75;entryY=0;entryDx=0;entryDy=0;exitX=0;exitY=0.5;exitDx=0;exitDy=0;endFill=0;" edge="1" parent="B1xsRvdfn8lzBRPcYKLo-1" source="B1xsRvdfn8lzBRPcYKLo-16" target="B1xsRvdfn8lzBRPcYKLo-10">
          <mxGeometry width="100" height="100" relative="1" as="geometry">
            <mxPoint x="557" y="418" as="sourcePoint" />
            <mxPoint x="470" y="305" as="targetPoint" />
          </mxGeometry>
        </mxCell>
        <mxCell id="igPUDaMPQfpU1xsEoiD0-4" value="" style="edgeStyle=orthogonalEdgeStyle;fontSize=12;html=1;endArrow=ERmandOne;rounded=0;entryX=0;entryY=0.5;entryDx=0;entryDy=0;exitX=1;exitY=0.5;exitDx=0;exitDy=0;endFill=0;" edge="1" parent="B1xsRvdfn8lzBRPcYKLo-1" source="B1xsRvdfn8lzBRPcYKLo-16" target="B1xsRvdfn8lzBRPcYKLo-13">
          <mxGeometry width="100" height="100" relative="1" as="geometry">
            <mxPoint x="550" y="270" as="sourcePoint" />
            <mxPoint x="490" y="350" as="targetPoint" />
          </mxGeometry>
        </mxCell>
        <mxCell id="igPUDaMPQfpU1xsEoiD0-7" value="" style="fontSize=12;html=1;endArrow=ERmandOne;endFill=0;rounded=0;entryX=0.5;entryY=0;entryDx=0;entryDy=0;exitX=0.5;exitY=1;exitDx=0;exitDy=0;" edge="1" parent="B1xsRvdfn8lzBRPcYKLo-1" source="B1xsRvdfn8lzBRPcYKLo-55" target="B1xsRvdfn8lzBRPcYKLo-10">
          <mxGeometry width="100" height="100" relative="1" as="geometry">
            <mxPoint x="490" y="408" as="sourcePoint" />
            <mxPoint x="530" y="408" as="targetPoint" />
          </mxGeometry>
        </mxCell>
        <mxCell id="igPUDaMPQfpU1xsEoiD0-8" value="" style="fontSize=12;html=1;endArrow=ERmandOne;endFill=0;rounded=0;entryX=0.5;entryY=1;entryDx=0;entryDy=0;exitX=0.5;exitY=0;exitDx=0;exitDy=0;" edge="1" parent="B1xsRvdfn8lzBRPcYKLo-1" source="B1xsRvdfn8lzBRPcYKLo-55" target="B1xsRvdfn8lzBRPcYKLo-6">
          <mxGeometry width="100" height="100" relative="1" as="geometry">
            <mxPoint x="400" y="268" as="sourcePoint" />
            <mxPoint x="400" y="330" as="targetPoint" />
          </mxGeometry>
        </mxCell>
        <mxCell id="igPUDaMPQfpU1xsEoiD0-17" value="&lt;span style=&quot;font-size: 9px;&quot;&gt;DescrProduto&lt;/span&gt;" style="text;html=1;align=center;verticalAlign=middle;resizable=0;points=[];autosize=1;strokeColor=none;fillColor=none;" vertex="1" parent="B1xsRvdfn8lzBRPcYKLo-1">
          <mxGeometry x="62" y="358" width="80" height="30" as="geometry" />
        </mxCell>
        <mxCell id="igPUDaMPQfpU1xsEoiD0-19" value="&lt;span style=&quot;font-size: 9px;&quot;&gt;Valor&lt;/span&gt;" style="text;html=1;align=center;verticalAlign=middle;resizable=0;points=[];autosize=1;strokeColor=none;fillColor=none;" vertex="1" parent="B1xsRvdfn8lzBRPcYKLo-1">
          <mxGeometry x="139" y="358" width="40" height="30" as="geometry" />
        </mxCell>
        <mxCell id="igPUDaMPQfpU1xsEoiD0-26" value="" style="ellipse;whiteSpace=wrap;html=1;aspect=fixed;" vertex="1" parent="B1xsRvdfn8lzBRPcYKLo-1">
          <mxGeometry x="332" y="390" width="10" height="10" as="geometry" />
        </mxCell>
        <mxCell id="igPUDaMPQfpU1xsEoiD0-27" value="" style="ellipse;whiteSpace=wrap;html=1;aspect=fixed;" vertex="1" parent="B1xsRvdfn8lzBRPcYKLo-1">
          <mxGeometry x="382" y="363" width="10" height="10" as="geometry" />
        </mxCell>
        <mxCell id="igPUDaMPQfpU1xsEoiD0-28" value="" style="ellipse;whiteSpace=wrap;html=1;aspect=fixed;" vertex="1" parent="B1xsRvdfn8lzBRPcYKLo-1">
          <mxGeometry x="382" y="377" width="10" height="10" as="geometry" />
        </mxCell>
        <mxCell id="igPUDaMPQfpU1xsEoiD0-29" value="" style="ellipse;whiteSpace=wrap;html=1;aspect=fixed;" vertex="1" parent="B1xsRvdfn8lzBRPcYKLo-1">
          <mxGeometry x="332" y="363" width="10" height="10" as="geometry" />
        </mxCell>
        <mxCell id="igPUDaMPQfpU1xsEoiD0-30" value="" style="ellipse;whiteSpace=wrap;html=1;aspect=fixed;" vertex="1" parent="B1xsRvdfn8lzBRPcYKLo-1">
          <mxGeometry x="332" y="376" width="10" height="10" as="geometry" />
        </mxCell>
        <mxCell id="igPUDaMPQfpU1xsEoiD0-38" value="" style="ellipse;whiteSpace=wrap;html=1;aspect=fixed;" vertex="1" parent="B1xsRvdfn8lzBRPcYKLo-1">
          <mxGeometry x="129" y="65" width="10" height="10" as="geometry" />
        </mxCell>
        <mxCell id="igPUDaMPQfpU1xsEoiD0-39" value="&lt;font style=&quot;font-size: 9px;&quot;&gt;IdEndereco&lt;/font&gt;" style="text;html=1;align=center;verticalAlign=middle;resizable=0;points=[];autosize=1;strokeColor=none;fillColor=none;" vertex="1" parent="B1xsRvdfn8lzBRPcYKLo-1">
          <mxGeometry x="347" y="55" width="70" height="30" as="geometry" />
        </mxCell>
        <mxCell id="igPUDaMPQfpU1xsEoiD0-40" value="" style="ellipse;whiteSpace=wrap;html=1;aspect=fixed;fillColor=#000000;" vertex="1" parent="B1xsRvdfn8lzBRPcYKLo-1">
          <mxGeometry x="345" y="65" width="10" height="10" as="geometry" />
        </mxCell>
      </root>
    </mxGraphModel>
  </diagram>
</mxfile>
